{
    "asset" : {
        "generator" : "Khronos glTF Blender I/O v1.6.16",
        "version" : "2.0"
    },
    "scene" : 0,
    "scenes" : [
        {
            "name" : "Scene",
            "nodes" : [
                0,
                1,
                2
            ]
        }
    ],
    "nodes" : [
        {
            "mesh" : 0,
            "name" : "Sketchup"
        },
        {
            "mesh" : 1,
            "name" : "bati",
            "translation" : [
                16.034425735473633,
                0,
                43.260963439941406
            ]
        },
        {
            "mesh" : 1,
            "name" : "bati.001",
            "translation" : [
                -43.66188430786133,
                0,
                19.40146827697754
            ]
        }
    ],
    "materials" : [
        {
            "doubleSided" : true,
            "name" : "Material.001",
            "pbrMetallicRoughness" : {
                "baseColorFactor" : [
                    0.800000011920929,
                    0.800000011920929,
                    0.800000011920929,
                    1
                ],
                "metallicFactor" : 0,
                "roughnessFactor" : 0.5
            }
        },
        {
            "doubleSided" : true,
            "name" : "Material4",
            "pbrMetallicRoughness" : {
                "baseColorTexture" : {
                    "index" : 0
                },
                "metallicFactor" : 0,
                "roughnessFactor" : 0.5
            }
        },
        {
            "doubleSided" : true,
            "name" : "*5",
            "pbrMetallicRoughness" : {
                "baseColorTexture" : {
                    "index" : 1
                },
                "metallicFactor" : 0,
                "roughnessFactor" : 0.5
            }
        },
        {
            "doubleSided" : true,
            "name" : "Material2",
            "pbrMetallicRoughness" : {
                "baseColorTexture" : {
                    "index" : 2
                },
                "metallicFactor" : 0,
                "roughnessFactor" : 0.559999942779541
            }
        }
    ],
    "meshes" : [
        {
            "name" : "Sketchup",
            "primitives" : [
                {
                    "attributes" : {
                        "POSITION" : 0,
                        "NORMAL" : 1,
                        "TEXCOORD_0" : 2
                    },
                    "indices" : 3,
                    "material" : 0
                },
                {
                    "attributes" : {
                        "POSITION" : 4,
                        "NORMAL" : 5,
                        "TEXCOORD_0" : 6
                    },
                    "indices" : 7,
                    "material" : 1
                },
                {
                    "attributes" : {
                        "POSITION" : 8,
                        "NORMAL" : 9,
                        "TEXCOORD_0" : 10
                    },
                    "indices" : 11,
                    "material" : 2
                }
            ]
        },
        {
            "name" : "bati",
            "primitives" : [
                {
                    "attributes" : {
                        "POSITION" : 12,
                        "NORMAL" : 13,
                        "TEXCOORD_0" : 14
                    },
                    "indices" : 15,
                    "material" : 3
                },
                {
                    "attributes" : {
                        "POSITION" : 16,
                        "NORMAL" : 17,
                        "TEXCOORD_0" : 18
                    },
                    "indices" : 19,
                    "material" : 0
                }
            ]
        }
    ],
    "textures" : [
        {
            "sampler" : 0,
            "source" : 0
        },
        {
            "sampler" : 0,
            "source" : 1
        },
        {
            "sampler" : 0,
            "source" : 2
        }
    ],
    "images" : [
        {
            "bufferView" : 8,
            "mimeType" : "image/jpeg",
            "name" : "mercuriales1"
        },
        {
            "bufferView" : 13,
            "mimeType" : "image/jpeg",
            "name" : "antenne1"
        },
        {
            "bufferView" : 18,
            "mimeType" : "image/jpeg",
            "name" : "facade3"
        }
    ],
    "accessors" : [
        {
            "bufferView" : 0,
            "componentType" : 5126,
            "count" : 559,
            "max" : [
                45.71746826171875,
                162,
                43.260963439941406
            ],
            "min" : [
                -43.66188430786133,
                112,
                -37.57282638549805
            ],
            "type" : "VEC3"
        },
        {
            "bufferView" : 1,
            "componentType" : 5126,
            "count" : 559,
            "type" : "VEC3"
        },
        {
            "bufferView" : 2,
            "componentType" : 5126,
            "count" : 559,
            "type" : "VEC2"
        },
        {
            "bufferView" : 3,
            "componentType" : 5123,
            "count" : 720,
            "type" : "SCALAR"
        },
        {
            "bufferView" : 4,
            "componentType" : 5126,
            "count" : 44,
            "max" : [
                45.71746826171875,
                122,
                43.260963439941406
            ],
            "min" : [
                -43.66188430786133,
                112,
                -37.57282638549805
            ],
            "type" : "VEC3"
        },
        {
            "bufferView" : 5,
            "componentType" : 5126,
            "count" : 44,
            "type" : "VEC3"
        },
        {
            "bufferView" : 6,
            "componentType" : 5126,
            "count" : 44,
            "type" : "VEC2"
        },
        {
            "bufferView" : 7,
            "componentType" : 5123,
            "count" : 48,
            "type" : "SCALAR"
        },
        {
            "bufferView" : 9,
            "componentType" : 5126,
            "count" : 75,
            "max" : [
                34.953636169433594,
                162,
                33.19619369506836
            ],
            "min" : [
                -30.784515380859375,
                121.13005065917969,
                -24.72937774658203
            ],
            "type" : "VEC3"
        },
        {
            "bufferView" : 10,
            "componentType" : 5126,
            "count" : 75,
            "type" : "VEC3"
        },
        {
            "bufferView" : 11,
            "componentType" : 5126,
            "count" : 75,
            "type" : "VEC2"
        },
        {
            "bufferView" : 12,
            "componentType" : 5123,
            "count" : 90,
            "type" : "SCALAR"
        },
        {
            "bufferView" : 14,
            "componentType" : 5126,
            "count" : 18,
            "max" : [
                29.683042526245117,
                112,
                0
            ],
            "min" : [
                0,
                0,
                -56.97429656982422
            ],
            "type" : "VEC3"
        },
        {
            "bufferView" : 15,
            "componentType" : 5126,
            "count" : 18,
            "type" : "VEC3"
        },
        {
            "bufferView" : 16,
            "componentType" : 5126,
            "count" : 18,
            "type" : "VEC2"
        },
        {
            "bufferView" : 17,
            "componentType" : 5123,
            "count" : 24,
            "type" : "SCALAR"
        },
        {
            "bufferView" : 19,
            "componentType" : 5126,
            "count" : 10,
            "max" : [
                29.683042526245117,
                112,
                0
            ],
            "min" : [
                0,
                0,
                -56.97429656982422
            ],
            "type" : "VEC3"
        },
        {
            "bufferView" : 20,
            "componentType" : 5126,
            "count" : 10,
            "type" : "VEC3"
        },
        {
            "bufferView" : 21,
            "componentType" : 5126,
            "count" : 10,
            "type" : "VEC2"
        },
        {
            "bufferView" : 22,
            "componentType" : 5123,
            "count" : 12,
            "type" : "SCALAR"
        }
    ],
    "bufferViews" : [
        {
            "buffer" : 0,
            "byteLength" : 6708,
            "byteOffset" : 0
        },
        {
            "buffer" : 0,
            "byteLength" : 6708,
            "byteOffset" : 6708
        },
        {
            "buffer" : 0,
            "byteLength" : 4472,
            "byteOffset" : 13416
        },
        {
            "buffer" : 0,
            "byteLength" : 1440,
            "byteOffset" : 17888
        },
        {
            "buffer" : 0,
            "byteLength" : 528,
            "byteOffset" : 19328
        },
        {
            "buffer" : 0,
            "byteLength" : 528,
            "byteOffset" : 19856
        },
        {
            "buffer" : 0,
            "byteLength" : 352,
            "byteOffset" : 20384
        },
        {
            "buffer" : 0,
            "byteLength" : 96,
            "byteOffset" : 20736
        },
        {
            "buffer" : 0,
            "byteLength" : 6167,
            "byteOffset" : 20832
        },
        {
            "buffer" : 0,
            "byteLength" : 900,
            "byteOffset" : 27000
        },
        {
            "buffer" : 0,
            "byteLength" : 900,
            "byteOffset" : 27900
        },
        {
            "buffer" : 0,
            "byteLength" : 600,
            "byteOffset" : 28800
        },
        {
            "buffer" : 0,
            "byteLength" : 180,
            "byteOffset" : 29400
        },
        {
            "buffer" : 0,
            "byteLength" : 1303,
            "byteOffset" : 29580
        },
        {
            "buffer" : 0,
            "byteLength" : 216,
            "byteOffset" : 30884
        },
        {
            "buffer" : 0,
            "byteLength" : 216,
            "byteOffset" : 31100
        },
        {
            "buffer" : 0,
            "byteLength" : 144,
            "byteOffset" : 31316
        },
        {
            "buffer" : 0,
            "byteLength" : 48,
            "byteOffset" : 31460
        },
        {
            "buffer" : 0,
            "byteLength" : 1131,
            "byteOffset" : 31508
        },
        {
            "buffer" : 0,
            "byteLength" : 120,
            "byteOffset" : 32640
        },
        {
            "buffer" : 0,
            "byteLength" : 120,
            "byteOffset" : 32760
        },
        {
            "buffer" : 0,
            "byteLength" : 80,
            "byteOffset" : 32880
        },
        {
            "buffer" : 0,
            "byteLength" : 24,
            "byteOffset" : 32960
        }
    ],
    "samplers" : [
        {
            "magFilter" : 9729,
            "minFilter" : 9987
        }
    ],
    "buffers" : [
        {
            "byteLength" : 32984,
            "uri" : "data:application/octet-stream;base64,"
        }
    ]
}
